HIERARCHY
ROOT Hips
{
  OFFSET 196.326 95.9168 97.7182
  CHANNELS 6 Xposition Yposition Zposition Zrotation Xrotation Yrotation
  JOINT LeftUpLeg
  {
    OFFSET 8.64259 1.95398 -2.38835
    CHANNELS 3 Zrotation Xrotation Yrotation
    JOINT LeftLeg
    {
      OFFSET 43.7702 0 0
      CHANNELS 3 Zrotation Xrotation Yrotation
      JOINT LeftFoot
      {
        OFFSET 40.6238 0 0
        CHANNELS 3 Zrotation Xrotation Yrotation
        JOINT LeftToeBase
        {
          OFFSET 12.7242 0 0
          CHANNELS 3 Zrotation Xrotation Yrotation
          End Site
          {
            OFFSET 0 0 0
          }
        }
      }
    }
  }
  JOINT RightUpLeg
  {
    OFFSET -8.2249 1.95398 -2.59336
    CHANNELS 3 Zrotation Xrotation Yrotation
    JOINT RightLeg
    {
      OFFSET 43.5653 0 0
      CHANNELS 3 Zrotation Xrotation Yrotation
      JOINT RightFoot
      {
        OFFSET 40.6238 0 0
        CHANNELS 3 Zrotation Xrotation Yrotation
        JOINT RightToeBase
        {
          OFFSET 12.7242 0 0
          CHANNELS 3 Zrotation Xrotation Yrotation
          End Site
          {
            OFFSET 0 0 0
          }
        }
      }
    }
  }
  JOINT Spine
  {
    OFFSET 0.165834 0.87714 6.61349
    CHANNELS 3 Zrotation Xrotation Yrotation
    JOINT Spine1
    {
      OFFSET 7.38963 1.71661e-005 0
      CHANNELS 3 Zrotation Xrotation Yrotation
      JOINT Spine2
      {
        OFFSET 11.9445 1.14441e-005 0
        CHANNELS 3 Zrotation Xrotation Yrotation
        JOINT Spine3
        {
          OFFSET 14.7254 4.19617e-005 0
          CHANNELS 3 Zrotation Xrotation Yrotation
          JOINT Spine4
          {
            OFFSET 10.9679 0 0
            CHANNELS 3 Zrotation Xrotation Yrotation
            JOINT RightShoulder
            {
              OFFSET 2.46616 -1.6653 3.69651
              CHANNELS 3 Zrotation Xrotation Yrotation
              JOINT RightArm
              {
                OFFSET 13.0012 0 0
                CHANNELS 3 Zrotation Xrotation Yrotation
                JOINT RightForeArm
                {
                  OFFSET 28.7848 1.52588e-005 0
                  CHANNELS 3 Zrotation Xrotation Yrotation
                  JOINT RightHand
                  {
                    OFFSET 26.5688 1.52588e-005 0
                    CHANNELS 3 Zrotation Xrotation Yrotation
                    End Site
                    {
                      OFFSET 0 0 0
                    }
                  }
                }
              }
            }
            JOINT LeftShoulder
            {
              OFFSET 2.38034 -1.29275 -3.75231
              CHANNELS 3 Zrotation Xrotation Yrotation
              JOINT LeftArm
              {
                OFFSET 16.3182 6.10351e-005 0
                CHANNELS 3 Zrotation Xrotation Yrotation
                JOINT LeftForeArm
                {
                  OFFSET 27.0901 0 0
                  CHANNELS 3 Zrotation Xrotation Yrotation
                  JOINT LeftHand
                  {
                    OFFSET 24.5451 1.52588e-005 0
                    CHANNELS 3 Zrotation Xrotation Yrotation
                    End Site
                    {
                      OFFSET 0 0 0
                    }
                  }
                }
              }
            }
            JOINT Neck
            {
              OFFSET 5.0226 -0.0266342 0
              CHANNELS 3 Zrotation Xrotation Yrotation
              JOINT Head
              {
                OFFSET 6.69363 2.86102e-005 0
                CHANNELS 3 Zrotation Xrotation Yrotation
                End Site
                {
                  OFFSET 0 0 0
                }
              }
            }
          }
        }
      }
    }
  }
}
MOTION
Frames:	14
Frame Time:	0.0416667
-227.742 96.0124 -212.243 82.6731 -65.8591 83.9118 -170.935 5.64737 92.0681 -7.3996 -2.18795 -0.594161 59.1703 4.87685 15.7826 43.4508 13.1038 -22.1182 177.814 5.53958 90.5561 -12.2292 5.53954 -0.0808651 67.4211 -3.2825 -1.76509 31.286 -0.624169 18.7827 -0.390846 6.45723 -89.954 13.9604 -0.752192 0.193634 2.28962 -0.742934 0.226547 -20.2473 -0.775612 -0.0413973 -0.234638 -0.775613 -0.0414021 89.4581 -46.5656 -102.515 27.6039 -3.05217 21.508 -0.435186 -0.182654 -96.6396 -77.2852 -5.87183 1.75714 -98.6939 -43.2896 63.3935 -31.481 13.4095 5.24705 10.4792 13.7601 -43.5962 4.28271 0.233753 1.20316 6.9954 7.02322 0.300768 1.43083 7.08945 3.48132 
-227.6 95.9694 -211.969 82.1164 -64.4739 83.5305 -171.005 6.07149 92.1834 -7.46512 -0.871992 -0.601994 59.1174 4.70784 15.5152 43.8531 13.0993 -24.5712 177.625 5.28223 90.6585 -11.6845 7.8711 0.222365 68.5678 -3.75301 -1.98685 29.1321 -1.34519 22.0891 -0.586017 6.44105 -89.9553 13.9944 -1.13955 0.24484 2.32392 -1.12766 0.29476 -20.2153 -1.16044 -0.109009 -0.202611 -1.16045 -0.109011 89.498 -46.3411 -102.51 28.2433 -3.20381 20.4715 -0.0363216 -0.202801 -96.3171 -73.9673 -3.3754 -1.18278 -98.337 -42.868 63.7824 -32.1199 12.9324 5.75148 9.89748 11.02 -46.7762 7.38068 0.663545 4.56139 7.66456 8.69209 -0.354855 1.22606 8.84698 3.46443 
-227.975 95.9334 -211.439 84.19 -66.8241 84.0692 -170.876 3.36986 91.4481 -5.59283 -3.48648 -0.792029 58.7192 4.76786 15.2562 42.8445 12.1995 -26.288 177.836 5.60573 89.8809 -14.3319 4.12463 -0.809557 68.4545 -3.41442 -1.81305 32.2363 -0.423898 19.4808 -0.437346 6.54971 -89.7723 13.7763 -0.756333 0.555892 2.10541 -0.731123 0.588631 -20.4312 -0.888434 0.302874 -0.418532 -0.888429 0.302867 88.6554 -46.3469 -103.851 28.0864 -1.66613 20.4659 6.17642 3.98999 -97.4136 -65.1689 -0.446546 -5.40173 -97.7603 -42.5247 64.5542 -32.6841 13.3218 6.90154 11.6329 8.25662 -54.4742 5.61202 0.663675 6.25617 7.10754 10.2525 -0.923543 2.33639 10.5714 3.98222 
-227.909 95.8253 -211.001 82.8204 -67.6011 82.7083 -171.116 3.52411 91.2628 -5.81645 -4.70462 -0.528086 58.9243 4.79011 15.5608 42.84 11.9897 -28.2223 178.165 6.19497 89.9882 -14.9743 3.21657 -1.14442 68.7808 -3.60709 -1.91311 33.1302 -0.209667 18.922 -0.398446 6.50442 -89.7542 13.8667 -0.669939 0.582412 2.19581 -0.643643 0.611324 -20.3403 -0.813995 0.35414 -0.327618 -0.813999 0.354134 88.42 -45.9169 -104.348 27.4279 3.15165 20.672 1.99108 -2.75918 -95.9755 -61.6005 0.858077 -7.12817 -97.0406 -42.0595 65.5117 -33.2631 16.2753 7.76332 13.7986 4.95098 -64.723 7.05414 0.488418 2.76165 6.96321 11.2187 -0.9658 2.59255 11.5417 4.01761 
-227.827 95.7789 -210.625 81.8532 -68.9311 82.0329 -171.07 3.33693 91.4695 -5.81016 -6.00917 -0.373361 59.1574 4.82633 15.6914 43.7777 12.7196 -27.327 178.561 6.45957 90.2745 -15.2815 1.65918 -1.44446 68.5393 -3.5886 -1.91495 33.9633 -0.0372286 20.2698 -0.287286 6.53437 -89.7666 13.8061 -0.455872 0.528338 2.13508 -0.432165 0.547873 -20.4002 -0.593579 0.366897 -0.387599 -0.593575 0.366895 88.8637 -44.8027 -103.949 29.9595 5.9782 19.615 10.1525 -0.377404 -91.8937 -51.8903 2.75281 -12.1067 -97.1926 -42.2319 65.3372 -32.6115 19.5358 8.48202 13.6566 -1.27171 -77.8626 9.01359 0.494202 1.49061 6.47724 11.9362 -0.48256 3.77868 12.1223 3.16968 
-228.005 95.6402 -210.524 80.9252 -70.0946 80.9659 -171.038 3.74765 91.3569 -6.752 -7.12896 -0.405183 59.41 5.20434 15.9215 43.9389 13.0015 -25.8799 179.066 6.98124 90.3816 -15.8804 0.650028 -1.97951 68.6818 -3.6465 -1.94284 34.8476 0.172741 20.6205 -0.277338 6.6214 -89.7353 13.6319 -0.421416 0.585613 1.96093 -0.395234 0.603586 -20.5741 -0.577933 0.431889 -0.561489 -0.577934 0.431888 88.6559 -44.1707 -104.468 32.2648 10.4507 17.9544 19.8712 6.35148 -88.8691 -21.3431 0.400052 -8.66712 -97.2903 -42.5973 65.3224 -31.2487 24.3148 7.5564 8.44232 -7.35115 -90.3265 5.88042 0.422335 2.68895 5.89226 12.508 -0.0702174 5.97848 12.641 2.84765 
-228.316 95.4657 -210.684 78.4936 -71.9388 78.0028 -170.605 4.93305 91.2298 -8.52742 -7.87606 -1.13341 58.6057 6.03187 17.3231 48.4488 16.0616 -26.3133 179.604 8.90894 90.102 -18.1688 -1.12454 -2.72452 69.1923 -3.64515 -1.92003 35.0366 0.207227 22.237 -0.224434 6.76912 -89.6753 13.3361 -0.288388 0.686471 1.66494 -0.257906 0.698489 -20.8693 -0.481377 0.568068 -0.856651 -0.481372 0.568062 87.5497 -45.0866 -105.991 31.5068 14.8934 16.2774 17.4979 10.0422 -81.0564 1.62004 0.304409 -6.6554 -97.7265 -42.6563 64.6584 -28.6136 27.3435 3.3842 8.71638 -10.7019 -101.293 3.08822 0.261 2.95572 5.91969 13.2163 0.723579 7.76048 13.1035 1.80835 
-228.583 95.1034 -211.356 71.5146 -73.6845 71.7034 -168.724 9.94828 91.8931 -14.5457 -7.17284 -2.9167 58.0666 6.6039 18.4594 52.702 19.0192 -26.1807 -179.524 12.148 90.5811 -20.2516 -2.64916 -3.10588 69.3917 -3.57531 -1.87038 35.9984 0.458902 22.398 -0.160622 6.92842 -89.7256 13.0173 -0.186993 0.571072 1.34622 -0.16168 0.57874 -21.1883 -0.34998 0.488478 -1.17562 -0.34998 0.488465 85.4369 -46.3861 -108.934 29.5066 21.1365 11.4309 5.56508 4.85368 -70.7185 14.3843 0.133103 -6.62563 -98.5629 -41.7858 62.9906 -25.4387 30.2125 -2.33237 9.40616 -13.8106 -107.618 2.02884 0.18461 2.70039 6.84237 13.7162 0.62346 8.79663 13.6501 2.08403 
-228.954 94.6979 -212.45 62.7342 -74.99 63.6297 -165.611 17.53 93.1656 -24.1416 -4.86263 -4.72071 56.3197 4.03227 16.0718 56.2569 23.0768 -20.4898 -178.691 15.3307 91.1422 -21.4105 -3.5718 -3.3586 69.8694 -3.63897 -1.88379 35.2384 0.252738 23.3491 -0.153446 7.19592 -89.808 12.4823 -0.21349 0.408096 0.811304 -0.195318 0.417093 -21.7236 -0.326277 0.325069 -1.71099 -0.326263 0.325073 83.5368 -46.8431 -111.745 27.8238 21.4673 8.83981 1.67465 4.56916 -66.4718 15.7791 0.17675 -5.76091 -98.9139 -40.0049 61.6815 -21.9556 32.5197 -8.91697 10.1641 -15.5077 -110.172 0.62933 0.128772 3.98486 7.7834 14.4674 1.07664 11.2023 14.4112 2.6753 
-229.342 94.4275 -213.941 53.3071 -75.819 54.5358 -162.981 25.499 93.8881 -33.1856 -2.06735 -6.03972 53.3423 0.364514 12.244 54.5725 25.1483 -9.14515 -177.804 18.9459 91.4205 -23.0577 -4.24458 -3.84065 69.607 -3.53703 -1.82273 36.2695 0.518187 21.9312 -0.143829 7.58686 -89.8933 11.7004 -0.235881 0.237534 0.029433 -0.225202 0.247688 -22.5058 -0.296372 0.155666 -2.49315 -0.296366 0.155667 82.5174 -46.4655 -113.47 26.5777 19.6 6.54193 1.82248 3.073 -64.6902 7.98253 0.221789 -4.37161 -100.251 -38.694 58.9383 -18.1795 33.3033 -14.2865 13.7178 -16.6413 -109.049 1.00719 0.206449 5.56745 8.66139 15.1654 1.73105 14.2059 15.2021 3.751 
-229.517 94.1219 -215.515 37.5098 -75.7042 38.9224 -161.617 33.3594 93.487 -37.6678 3.8709 -6.88232 53.3891 -0.220847 10.7208 51.9322 26.6427 3.80336 -176.624 23.9963 91.4964 -24.924 -3.89425 -4.45306 69.6546 -3.65896 -1.88034 40.4204 1.46763 18.777 -0.107226 7.9107 -89.9052 11.0526 -0.169421 0.206107 -0.618305 -0.160176 0.213363 -23.1535 -0.223536 0.145663 -3.14083 -0.223534 0.145664 81.6826 -46.1374 -114.894 25.5342 17.2399 2.54135 0.654036 3.96246 -62.1197 2.28181 0.149098 -3.26526 -101.497 -37.4772 56.3275 -14.2847 33.6325 -18.5723 16.9267 -16.6406 -106.263 3.97875 0.644934 9.01298 10.2276 15.7948 1.48503 16.4371 16.2661 5.62097 
-229.305 93.9319 -216.925 21.1296 -75.472 23.4092 -161.995 38.6348 94.5457 -35.2918 10.4988 -7.7123 56.3051 1.47768 10.9876 56.4527 29.4113 -1.94635 -175.14 27.5384 92.1097 -24.972 -0.216918 -4.80113 69.6696 -4.29539 -2.21377 40.3874 1.43242 18.0361 -0.0788271 8.33934 -89.9358 10.1953 -0.127756 0.137416 -1.47562 -0.121567 0.14291 -24.0108 -0.163144 0.0926749 -3.99816 -0.163144 0.0926706 80.8346 -45.724 -116.381 24.5525 14.6284 -2.13683 1.02423 3.95535 -59.2101 -2.67377 0.0288889 -3.16786 -101.855 -36.6626 55.3313 -11.4551 32.3981 -21.3772 26.2969 -15.3782 -100.635 10.9093 2.05602 13.6775 12.6206 17.0003 1.97767 18.5476 17.5402 6.532 
-228.884 93.4527 -218.261 12.8495 -73.9588 15.2781 -164.527 42.3438 95.4801 -30.0843 10.0428 -6.92164 59.0469 4.31842 13.5134 58.0281 29.9633 -4.60022 -174.818 31.4579 91.6467 -26.7 5.00761 -4.59527 70.6074 -5.19528 -2.63324 37.2614 0.741515 18.4904 -0.172374 8.83706 -89.9159 9.19995 -0.306091 0.188489 -2.47097 -0.297491 0.201771 -25.0064 -0.348595 0.087777 -4.99373 -0.348586 0.0877786 80.6027 -45.3912 -116.882 23.7092 12.8405 -7.16368 1.76366 4.33991 -57.621 -8.29037 -0.160606 -2.41141 -103.187 -35.8382 52.7219 -8.96874 27.9397 -23.0861 30.3393 -10.8819 -94.9205 14.5318 2.89009 15.4909 15.4358 17.6363 1.8394 20.5087 18.5477 8.00323 
-228.688 92.5322 -219.378 3.77285 -70.572 5.5956 -166.285 46.9459 96.4129 -25.2694 3.24791 -6.09644 62.0309 6.91248 14.7658 56.0493 28.9917 -1.97112 -173.851 38.0685 90.2932 -29.7361 4.64763 -4.65943 68.1842 -4.96572 -2.60028 36.7289 0.609029 16.8245 -0.199544 9.11384 -89.7155 8.64626 -0.272015 0.579976 -3.02481 -0.246218 0.59138 -25.5594 -0.433745 0.471405 -5.54678 -0.433745 0.471414 79.2818 -45.9077 -118.699 21.7795 11.954 -11.1404 2.14239 4.30979 -57.0905 -14.1649 -0.384938 -2.0763 -104.39 -34.7362 50.1396 -6.93312 21.5942 -23.7216 29.5063 -5.63037 -89.1849 18.4815 3.62295 15.6898 17.8686 18.1608 1.10995 22.3787 19.5104 8.83446 
